<svg xmlns="http://www.w3.org/2000/svg" viewBox="0 0 96 96">
  <defs id="defs3051">
    <style type="text/css" id="current-color-scheme">
      .ColorScheme-Text {
        color:#232629;
      }
      .ColorScheme-Highlight {
        color:#3daee9;
      }
      </style>
  </defs>
  <path
     style="fill:currentColor"
     d="M 6 9 L 6 30 L 5 30 L 5 87 L 91 87 L 91 24 L 90 24 L 90 15 L 48 15 L 42 9 L 6 9 z "
     class="ColorScheme-Highlight"
     />
  <path
     style="fill-opacity:0.33"
     d="M 6 9 L 6 30 L 33 30 L 39 24 L 90 24 L 90 15 L 48 15 L 42 9 L 6 9 z "
     />
  <path
     style="fill:#ffffff;fill-opacity:0.2"
     d="M 42 9 L 47 16 L 90 16 L 90 15 L 48 15 L 42 9 z M 39 24 L 33 30 L 5 30 L 5 31 L 34 31 L 39 24 z "
     />
  <path
     style="fill-opacity:0.2;fill-rule:evenodd"
     d="M 39 24 L 32 29 L 6 29 L 6 30 L 33 30 L 39 24 z M 5 86 L 5 87 L 91 87 L 91 86 L 5 86 z "
     class="ColorScheme-Text"
     />
  <path
     style="fill:currentColor;fill-opacity:0.6;stroke:none"
     d="m 47.990457,35.95998 c -10.479458,0 -19.029618,8.258488 -19.490426,18.619223 -6.41e-4,0.01464 0.01815,0.05271 0.02401,0.07615 a 19.509482,19.499958 0 0 1 0.0097,-0.233268 l 9.507042,4.860705 a 6.0967132,6.0937371 0 0 1 3.85326,-1.38538 6.0967132,6.0937371 0 0 1 0.142881,0.005 l 3.529425,-5.884257 a 8.5353985,8.5312319 0 0 1 -0.01464,-0.214318 8.5353985,8.5312319 0 0 1 8.535397,-8.531232 8.5353985,8.5312319 0 0 1 8.535402,8.531232 8.5353985,8.5312319 0 0 1 -8.535402,8.531233 8.5353985,8.5312319 0 0 1 -1.209815,-0.08569 l -4.948818,2.880241 a 6.0967132,6.0937371 0 0 1 0.06192,0.861693 6.0967132,6.0937371 0 0 1 -6.096711,6.093739 6.0967132,6.0937371 0 0 1 -6.096716,-6.093739 6.0967132,6.0937371 0 0 1 0.0284,-0.366577 L 29.076422,60.173184 A 19.509482,19.499958 0 0 1 28.97638,59.659026 c 0.0025,0.134646 0.02548,0.288812 0.07145,0.476072 2.095867,8.511057 9.78063,14.82492 18.942674,14.82492 10.774791,0 19.509482,-8.730428 19.509482,-19.49996 0,-10.769529 -8.734691,-19.499957 -19.509477,-19.499957 z m 6.096712,10.968727 a 4.8773705,4.8749896 0 0 0 -4.877369,4.874991 4.8773705,4.8749896 0 0 0 4.877369,4.874989 4.8773705,4.8749896 0 0 0 4.877375,-4.874989 4.8773705,4.8749896 0 0 0 -4.877375,-4.874991 z m 0,1.218745 a 3.6580279,3.6562424 0 0 1 3.658026,3.656246 3.6580279,3.6562424 0 0 1 -3.658026,3.656242 3.6580279,3.6562424 0 0 1 -3.658028,-3.656242 3.6580279,3.6562424 0 0 1 3.658028,-3.656246 z M 41.893742,60.334928 a 3.6580284,3.6562429 0 0 0 -1.314601,0.247549 l 2.424397,1.237791 a 2.4390635,2.4378729 0 1 1 -2.219585,4.34179 l -2.410105,-1.233032 a 3.6580284,3.6562429 0 0 0 3.519894,2.71838 3.6580284,3.6562429 0 0 0 3.658031,-3.656245 3.6580284,3.6562429 0 0 0 -3.658031,-3.656241 z"
     class="ColorScheme-Text"
     />
</svg>
