<svg xmlns="http://www.w3.org/2000/svg" viewBox="0 0 22 22">
  <defs id="defs3051">
    <style type="text/css" id="current-color-scheme">
      .ColorScheme-Text {
        color:#eff0f1
      }
      </style>
  </defs>
  <path
     style="fill:currentColor"
     d="m 3,10.638672 c -2.627e-4,0.006 0.00737,0.02162 0.00977,0.03125 0.00111,-0.03191 0.00241,-0.06381 0.00391,-0.0957 z m 0.029297,-0.05664 C 3.0158838,10.721074 3.0061149,10.860445 3,11 c 0.00594,0.655906 0.09253,1.308591 0.2578125,1.943359 l 2.7480469,1.40625 c -0.00542,0.05 -0.00933,0.100154 -0.011719,0.150391 -2.8e-6,1.380231 1.1190872,2.499321 2.5,2.5 1.3816756,3.99e-4 2.5019566,-1.119007 2.5019536,-2.5 -8.5e-5,-0.118291 -0.0086,-0.236426 -0.02539,-0.353516 L 13,12.964844 c 0.164967,0.02355 0.331406,0.0353 0.498047,0.03516 1.933278,-9.51e-4 3.500004,-1.567677 3.5,-3.5 4e-6,-1.9323232 -1.566722,-3.4990491 -3.5,-3.5 -1.934041,-1.27e-4 -3.5019568,1.5669146 -3.5019532,3.5 0.00158,0.02932 0.00354,0.05862 0.00586,0.087891 l -1.4492196,2.414058 c -0.019523,-8.8e-4 -0.039056,-0.0015 -0.058594,-0.002 -0.5764851,0.0018 -1.1346541,0.202567 -1.5800781,0.568359 z m 0.2070312,2.351563 c -0.014616,-0.07013 -0.028289,-0.140445 -0.041016,-0.210938 0.00101,0.05524 0.010373,0.118487 0.029297,0.195313 z M 13.498047,7.5 c 1.10473,5.433e-4 2.000002,0.8958153 2,2 2e-6,1.104185 -0.89527,1.999457 -2,2 -1.105493,5.35e-4 -2.001955,-0.895053 -2.001953,-2 -2e-6,-1.104947 0.89646,-2.0005348 2.001953,-2 z m 0,0.5 c -0.82931,-6.709e-4 -1.501955,0.671099 -1.501953,1.5 -2e-6,0.828901 0.672643,1.500671 1.501953,1.5 0.828548,-4.07e-4 1.500002,-0.671861 1.5,-1.5 2e-6,-0.8281385 -0.671452,-1.4995925 -1.5,-1.5 z m -5.0039064,5 c 0.8293103,-6.71e-4 1.5019549,0.671099 1.5019532,1.5 1.7e-6,0.828901 -0.6726429,1.500671 -1.5019532,1.5 -0.6779095,-0.0032 -1.269475,-0.46032 -1.4433594,-1.115234 l 0.9882813,0.505859 c 1.1881818,0.608068 2.1002915,-1.173182 0.9121094,-1.78125 L 7.9550781,13.101562 C 8.1269967,13.034893 8.3097363,13.000464 8.4941406,13 Z"
     class="ColorScheme-Text" />
</svg>
