<svg xmlns="http://www.w3.org/2000/svg" viewBox="0 0 24 24" width="24" height="24">
  <defs id="defs3051">
    <style type="text/css" id="current-color-scheme">
      .ColorScheme-Text {
        color:#eff0f1
      }
      </style>
  </defs>
  <path
     style="fill:currentColor"
     d="M 4.0292966,11.582032 C 4.0158838,11.721074 4.0061149,11.860445 4,12 c 0.00594,0.655906 0.09253,1.308591 0.2578125,1.943359 l 2.7480469,1.40625 c -0.00542,0.05 -0.00933,0.100154 -0.011719,0.150391 -2.8e-6,1.380231 1.1190872,2.499321 2.5,2.5 1.3816756,3.99e-4 2.5019566,-1.119007 2.5019536,-2.5 -8.5e-5,-0.118291 -0.0086,-0.236426 -0.02539,-0.353516 L 14,13.964844 c 0.164967,0.02355 0.331406,0.0353 0.498047,0.03516 1.933278,-9.51e-4 3.500004,-1.567677 3.5,-3.5 4e-6,-1.9323231 -1.566722,-3.499049 -3.5,-3.5 -1.934041,-1.267e-4 -3.501957,1.5669148 -3.501953,3.5 0.0016,0.02932 0.0035,0.05862 0.0059,0.08789 l -1.4492186,2.414062 c -0.019523,-8.8e-4 -0.039056,-0.0015 -0.058594,-0.002 -0.5764851,0.0018 -1.1346541,0.202567 -1.5800781,0.568359 z m 0.2285156,2.361328 -0.021484,-0.0098 z M 14.498047,8.5 c 1.10473,5.434e-4 2.000002,0.8958154 2,2 2e-6,1.104185 -0.89527,1.999457 -2,2 -1.105493,5.35e-4 -2.001955,-0.895053 -2.001953,-2 -2e-6,-1.104947 0.89646,-2.0005347 2.001953,-2 z m 0,0.5 c -0.82931,-6.708e-4 -1.501955,0.671099 -1.501953,1.5 -2e-6,0.828901 0.672643,1.500671 1.501953,1.5 0.828548,-4.08e-4 1.500002,-0.671861 1.5,-1.5 2e-6,-0.8281385 -0.671452,-1.4995925 -1.5,-1.5 z m -5.0039064,5 c 0.8293104,-6.71e-4 1.5019554,0.671099 1.5019534,1.5 2e-6,0.828901 -0.672643,1.500671 -1.5019534,1.5 -0.6779095,-0.0032 -1.269475,-0.46032 -1.4433594,-1.115234 l 0.9882813,0.505859 c 1.1880865,0.607772 2.1001955,-1.173478 0.9121094,-1.78125 L 8.9550781,14.101562 C 9.1269967,14.034893 9.3097363,14.000464 9.4941406,14 Z"
     class="ColorScheme-Text"/>
</svg>
