<svg xmlns="http://www.w3.org/2000/svg" viewBox="0 0 48 48">
  <defs id="defs3051">
    <style type="text/css" id="current-color-scheme">
      .ColorScheme-Text {
        color:#31363b;
      }
      .ColorScheme-Highlight {
        color:#3daee9;
      }
      </style>
  </defs>
  <path
     style="fill:currentColor;fill-opacity:1;stroke:none"
     d="M 5,6 V 16 H 4 V 42 H 44 V 13 H 43 V 9 H 24 L 21,6 Z"
     class="ColorScheme-Highlight"
     />
  <path
     style="fill-opacity:0.33;fill-rule:evenodd"
     d="m 5,6 v 10 h 12 l 3,-3 H 43 V 9 H 24 L 21,6 Z"
     />
  <path
     style="fill:#ffffff;fill-opacity:0.2;fill-rule:evenodd"
     d="M 21 6 L 23 10 L 43 10 L 43 9 L 24 9 L 21 6 z M 20 13 L 17 16 L 4 16 L 4 17 L 18 17 L 20 13 z "
     />
  <path
     style="fill-opacity:0.2;fill-rule:evenodd"
     d="M 20 13 L 16 15 L 5 15 L 5 16 L 17 16 L 20 13 z M 4 41 L 4 42 C 4 42 44 42 44 42 L 44 41 L 4 41 z "
     class="ColorScheme-Text"
     />
  <path
     style="fill:currentColor;fill-opacity:0.6;stroke:none"
     d="m 15,27.09375 c -2.96e-4,0.0068 0.009,0.02435 0.01172,0.03516 0.0011,-0.03581 0.0024,-0.07162 0.0039,-0.107422 z m 0.0332,-0.0625 C 15.018057,27.187184 15.006986,27.343488 15,27.5 c 0.0063,0.738263 0.10335,1.47295 0.289062,2.1875 l 3.091797,1.580078 c -0.0063,0.05649 -0.01083,0.113156 -0.01367,0.169922 -3e-6,1.553517 1.260162,2.812807 2.814453,2.8125 1.554291,3.07e-4 2.814456,-1.258983 2.814453,-2.8125 -3.04e-4,-0.133339 -0.01009,-0.266487 -0.0293,-0.398438 l 2.285156,-1.328124 c 0.18439,0.02616 0.370403,0.03921 0.556641,0.03906 2.175703,-2e-6 3.939457,-1.762881 3.939453,-3.9375 4e-6,-2.174619 -1.76375,-3.937498 -3.939453,-3.9375 -2.175703,2e-6 -3.939457,1.762881 -3.939453,3.9375 0.0022,0.03324 0.0048,0.06644 0.0078,0.09961 l -1.628906,2.714844 c -0.02213,-9.12e-4 -0.04426,-0.0016 -0.06641,-0.002 -0.648372,0.0019 -1.276207,0.227474 -1.777344,0.638672 z M 26.808594,23.5625 c 1.243586,-4.61e-4 2.251955,1.007034 2.251953,2.25 2e-6,1.242966 -1.008367,2.250461 -2.251953,2.25 -1.242823,-6.17e-4 -2.250002,-1.007796 -2.25,-2.25 -2e-6,-1.242204 1.007177,-2.249383 2.25,-2.25 z m 0,0.5625 c -0.932117,4.63e-4 -1.687502,0.755847 -1.6875,1.6875 -2e-6,0.931653 0.755383,1.687037 1.6875,1.6875 0.93288,6.16e-4 1.689455,-0.755085 1.689453,-1.6875 2e-6,-0.932415 -0.756573,-1.688116 -1.689453,-1.6875 z m -5.626953,5.625 c 0.932117,4.63e-4 1.687502,0.755847 1.6875,1.6875 2e-6,0.931653 -0.755383,1.687037 -1.6875,1.6875 -0.762894,-0.003 -1.428984,-0.516985 -1.625,-1.253906 l 1.113281,0.568359 c 1.349709,0.723075 2.40105,-1.335468 1.023437,-2.003906 l -1.11914,-0.572266 c 0.193778,-0.07479 0.3997,-0.11319 0.607422,-0.113281 z"
     class="ColorScheme-Text"
     />
</svg>
