<svg xmlns="http://www.w3.org/2000/svg" viewBox="0 0 16 16">
  <defs id="defs3051">
    <style type="text/css" id="current-color-scheme">
      .ColorScheme-Text {
        color:#eff0f1;
      }
      </style>
  </defs>
  <path style="fill:currentColor"
     d="m 2,7.7285156 c -1.971e-4,0.00455 0.00602,0.016221 0.00781,0.023437 5.058e-4,-0.024092 0.00116,-0.048181 0.00195,-0.072266 z M 2.021484,7.6855466 C 2.0115706,7.7901584 2.0044067,7.8950123 2,8 2.0037,8.4923394 2.067985,8.9823516 2.1914062,9.4589844 l 2.0625,1.0527346 c -0.0044,0.03765 -0.00766,0.07543 -0.00977,0.113281 -2.1e-6,1.035936 0.8405059,1.875569 1.8769532,1.875 1.0356846,-5.09e-4 1.8750021,-0.839827 1.875,-1.875 4.445e-4,-0.08885 -0.00543,-0.177611 -0.017578,-0.265625 L 9.5,9.4746094 C 9.6235875,9.491921 9.7482523,9.500406 9.8730469,9.5 11.323768,9.5003648 12.500003,8.3250046 12.5,6.875 12.500003,5.4249954 11.323768,4.2496352 9.8730469,4.25 8.4223257,4.2496352 7.246091,5.4249954 7.2460938,6.875 c 0.00167,0.022159 0.00363,0.044296 0.00586,0.066406 L 6.1660156,8.7519531 C 6.15105,8.7511227 6.136075,8.7504716 6.1210938,8.75 5.688622,8.7510942 5.2698111,8.9015073 4.9355469,9.1757812 Z M 2.1464838,9.292971 C 0,0 0,0 2.1464838,9.292971 Z M 9.8730469,5.375 c 0.8285481,4.074e-4 1.5000021,0.6718614 1.5000001,1.5 2e-6,0.8281386 -0.671452,1.4995926 -1.5000001,1.5 -0.8285477,-4.075e-4 -1.5000017,-0.6718615 -1.5,-1.5 -1.7e-6,-0.8281385 0.6714523,-1.4995925 1.5,-1.5 z m 0,0.375 c -0.6214107,3.055e-4 -1.1250012,0.5038961 -1.125,1.125 -1.2e-6,0.6211039 0.5035893,1.1246945 1.125,1.125 C 10.494458,7.9996945 10.998048,7.496104 10.998047,6.875 10.998048,6.253896 10.494458,5.7503055 9.8730469,5.75 Z M 6.1210938,9.5 c 0.6214107,3.057e-4 1.1250011,0.503896 1.125,1.125 1.1e-6,0.621104 -0.5035893,1.124694 -1.125,1.125 C 5.6129828,11.7474 5.169613,11.40488 5.0390625,10.914062 l 0.7402344,0.378907 C 6.6703618,11.748473 7.3539555,10.412535 6.4628906,9.9570312 L 5.7167969,9.5761719 C 5.8457358,9.52617 5.9827906,9.500348 6.1210938,9.5 Z"
     class="ColorScheme-Text"
   />
</svg>
