<svg xmlns="http://www.w3.org/2000/svg" viewBox="0 0 32 32">
  <defs id="defs3051">
    <style type="text/css" id="current-color-scheme">
      .ColorScheme-Text {
        color:#31363b;
      }
      .ColorScheme-Highlight {
        color:#3daee9;
      }
      </style>
  </defs>
  <path
     style="fill:currentColor;fill-opacity:1;stroke:none"
     d="M 2 3 L 2 10 L 1 10 L 1 29 L 12 29 L 13 29 L 31 29 L 31 8 L 30 8 L 30 5 L 16 5 L 14 3 L 2 3 z "
     class="ColorScheme-Highlight"
     />
  <path
     style="fill-opacity:0.33;fill-rule:evenodd"
     d="m 2,3 0,7 9,0 L 13,8 30,8 30,5 16,5 14,3 2,3 Z"
     />
  <path
     style="fill:#ffffff;fill-opacity:0.2;fill-rule:evenodd"
     d="M 14 3 L 15 6 L 30 6 L 30 5 L 16 5 L 14 3 z M 13 8 L 11 10 L 1 10 L 1 11 L 12 11 L 13 8 z "
     />
  <path
     style="fill-opacity:0.2;fill-rule:evenodd"
     d="M 13 8 L 11 9 L 2 9 L 2 10 L 11 10 L 13 8 z M 1 28 L 1 29 L 31 29 L 31 28 L 1 28 z "
     class="ColorScheme-Text"
     />
  <path
     style="fill:currentColor;fill-opacity:0.6;stroke:none"
     d="m 15.99661,11.5 c -3.761879,0 -6.8311848,2.964586 -6.9966043,6.683826 -2.299e-4,0.0053 0.00647,0.01892 0.00856,0.02734 a 7.0034461,6.9999869 0 0 1 0.00345,-0.08374 l 3.4128043,1.744869 a 2.1885769,2.1874959 0 0 1 1.38323,-0.497316 2.1885769,2.1874959 0 0 1 0.05129,0.0018 l 1.266981,-2.112298 a 3.0640078,3.0624943 0 0 1 -0.0053,-0.07694 3.0640078,3.0624943 0 0 1 3.064007,-3.062495 3.0640078,3.0624943 0 0 1 3.064009,3.062495 3.0640078,3.0624943 0 0 1 -3.064009,3.062493 3.0640078,3.0624943 0 0 1 -0.434295,-0.03076 l -1.77651,1.033934 a 2.1885769,2.1874959 0 0 1 0.02223,0.309326 2.1885769,2.1874959 0 0 1 -2.188577,2.187496 2.1885769,2.1874959 0 0 1 -2.188577,-2.187496 2.1885769,2.1874959 0 0 1 0.01023,-0.131592 L 9.2068385,20.191903 a 7.0034461,6.9999869 0 0 1 -0.035909,-0.184569 c 8.87e-4,0.04833 0.00909,0.103676 0.025649,0.170898 C 9.9489462,23.233483 12.707595,25.5 15.996553,25.5 19.86445,25.5 23,22.365998 23,18.500012 23,14.634027 19.86445,11.500025 15.996555,11.500025 Z m 2.188577,3.937493 a 1.7508615,1.7499967 0 0 0 -1.750861,1.749997 1.7508615,1.7499967 0 0 0 1.750861,1.749996 1.7508615,1.7499967 0 0 0 1.750863,-1.749996 1.7508615,1.7499967 0 0 0 -1.750863,-1.749997 z m 0,0.437498 a 1.3131461,1.3124976 0 0 1 1.313145,1.312499 1.3131461,1.3124976 0 0 1 -1.313145,1.312497 1.3131461,1.3124976 0 0 1 -1.313146,-1.312497 1.3131461,1.3124976 0 0 1 1.313146,-1.312499 z m -4.377154,4.374993 a 1.3131463,1.3124978 0 0 0 -0.471911,0.08886 l 0.870302,0.444334 a 0.87556657,0.8751341 0 1 1 -0.796779,1.558592 l -0.865171,-0.442626 a 1.3131463,1.3124978 0 0 0 1.263559,0.975828 1.3131463,1.3124978 0 0 0 1.313148,-1.312498 1.3131463,1.3124978 0 0 0 -1.313148,-1.312497 z"
     class="ColorScheme-Text"
     />
</svg>
