<svg xmlns="http://www.w3.org/2000/svg" viewBox="0 0 32 32">
  <defs id="defs3051">
    <style type="text/css" id="current-color-scheme">
      .ColorScheme-Text {
        color:#31363b;
      }
      .ColorScheme-Highlight {
        color:#3daee9;
      }
      </style>
  </defs>
  <path
     style="fill:currentColor;fill-opacity:1;stroke:none"
     d="M 2 3 L 2 10 L 1 10 L 1 29 L 12 29 L 13 29 L 31 29 L 31 8 L 30 8 L 30 5 L 16 5 L 14 3 L 2 3 z "
     class="ColorScheme-Highlight"
     />
  <path
     style="fill-opacity:0.33;fill-rule:evenodd"
     d="m 2,3 0,7 9,0 L 13,8 30,8 30,5 16,5 14,3 2,3 Z"
     />
  <path
     style="fill:#ffffff;fill-opacity:0.2;fill-rule:evenodd"
     d="M 14 3 L 15 6 L 30 6 L 30 5 L 16 5 L 14 3 z M 13 8 L 11 10 L 1 10 L 1 11 L 12 11 L 13 8 z "
     />
  <path
     style="fill-opacity:0.2;fill-rule:evenodd"
     d="M 13 8 L 11 9 L 2 9 L 2 10 L 11 10 L 13 8 z M 1 28 L 1 29 L 31 29 L 31 28 L 1 28 z "
     class="ColorScheme-Text"
     />
  <path
     style="fill:currentColor;fill-opacity:0.6;stroke:none"
     d="m 9,18.183594 c -2.299e-4,0.0053 0.00572,0.01892 0.00781,0.02734 0.00113,-0.028 0.00244,-0.056 0.00391,-0.08398 z m 0.025391,-0.04883 C 9.0137442,18.256268 9.0052778,18.378055 9,18.5 c 0.00498,0.573469 0.080416,1.144152 0.2246094,1.699219 l 2.4042966,1.232422 c -0.0046,0.04351 -0.0078,0.08715 -0.0098,0.130859 -2e-6,1.208464 0.980392,2.187984 2.189453,2.1875 1.208299,-5.94e-4 2.187502,-0.979798 2.1875,-2.1875 1.33e-4,-0.103243 -0.007,-0.206365 -0.02149,-0.308594 L 17.75,20.21875 c 0.144254,0.02076 0.289806,0.0312 0.435547,0.03125 1.692381,2.46e-4 3.064456,-1.370955 3.064453,-3.0625 3e-6,-1.691545 -1.372072,-3.062746 -3.064453,-3.0625 -1.692381,-2.46e-4 -3.064456,1.370955 -3.064453,3.0625 0.0016,0.02541 0.0036,0.05081 0.0059,0.07617 l -1.267578,2.113281 c -0.01692,-8.47e-4 -0.03385,-0.0015 -0.05078,-0.002 -0.504598,0.0017 -0.993102,0.177663 -1.382813,0.498047 z M 18.185547,15.4375 c 0.966639,4.75e-4 1.750002,0.783838 1.75,1.75 2e-6,0.966162 -0.783361,1.749525 -1.75,1.75 -0.967402,6.03e-4 -1.751955,-0.783076 -1.751953,-1.75 -2e-6,-0.966924 0.784551,-1.750603 1.751953,-1.75 z m 0,0.4375 c -0.725742,-7.22e-4 -1.314455,0.587116 -1.314453,1.3125 -2e-6,0.725384 0.588711,1.313222 1.314453,1.3125 0.724979,-3.57e-4 1.312501,-0.587879 1.3125,-1.3125 1e-6,-0.724621 -0.587521,-1.312143 -1.3125,-1.3125 z m -4.376953,4.375 c 0.724979,3.57e-4 1.312501,0.587879 1.3125,1.3125 1e-6,0.724621 -0.587521,1.312143 -1.3125,1.3125 -0.593653,-0.0026 -1.11173,-0.40296 -1.263672,-0.976562 l 0.865234,0.443359 c 1.039576,0.530987 1.836451,-1.027607 0.796875,-1.558594 l -0.871093,-0.445312 c 0.150798,-0.05812 0.311035,-0.08792 0.472656,-0.08789 z"
     class="ColorScheme-Text"
     />
</svg>
