<svg xmlns="http://www.w3.org/2000/svg" viewBox="0 0 64 64">
  <defs id="defs3051">
    <style type="text/css" id="current-color-scheme">
      .ColorScheme-Text {
        color:#232629;
      }
      .ColorScheme-Highlight {
        color:#3daee9;
      }
      </style>
  </defs>
  <path
     style="fill:currentColor"
     d="M 4 6 L 4 11 L 4 20 L 3 20 L 3 21 L 3 21 C 3 21 3 21 3 21 L 3 57 L 3 58 L 4 58 L 60 58 L 61 58 L 61 57 L 61 21 L 61 21 L 61 16 L 60 16 L 60 11 C 60 11 60 11 60 11 L 60 11 L 60 10 L 32 10 L 28 6 L 4 6 z "
     class="ColorScheme-Highlight"
     />
  <path
     style="fill-opacity:0.33"
     d="M 4 6 L 4 11 L 4 20 L 22 20 L 26 16 L 60 16 L 60 11 C 60 11 60 11 60 11 L 60 11 L 60 10 L 32 10 L 28 6 L 4 6 z "
     />
  <path
     style="fill:#ffffff;fill-opacity:0.2"
     d="M 28 6 L 31 11 L 33 11 L 60 11 L 60 10 L 33 10 L 32 10 L 28 6 z M 26 16 L 22 20 L 3 20 L 3 21 L 23 21 L 26 16 z "
     />
  <path
     style="fill-opacity:0.2;fill-rule:evenodd"
     d="M 26 16 L 20 19 L 4 19 L 4 20 L 22 20 L 26 16 z M 3 57 L 3 58 L 4 58 L 60 58 L 61 58 L 61 57 L 60 57 L 4 57 L 3 57 z "
     class="ColorScheme-Text"
     />
  <path
     style="fill:currentColor;fill-opacity:0.6;stroke:none"
     d="m 31.993628,24.000006 c -6.986311,0 -12.68642,5.505654 -12.993626,12.412809 -4.27e-4,0.0097 0.0121,0.03513 0.01601,0.05077 a 13.00633,12.999965 0 0 1 0.0064,-0.155512 l 6.338035,3.240468 a 4.0644781,4.0624891 0 0 1 2.568842,-0.923586 4.0644781,4.0624891 0 0 1 0.09525,0.0033 L 30.37749,34.70542 a 5.6902694,5.6874847 0 0 1 -0.0097,-0.142888 5.6902694,5.6874847 0 0 1 5.690267,-5.687485 5.6902694,5.6874847 0 0 1 5.690272,5.687485 5.6902694,5.6874847 0 0 1 -5.690272,5.687484 5.6902694,5.6874847 0 0 1 -0.806544,-0.05713 l -3.299233,1.920175 a 4.0644781,4.0624891 0 0 1 0.04129,0.574461 4.0644781,4.0624891 0 0 1 -4.064478,4.062491 4.0644781,4.0624891 0 0 1 -4.06448,-4.062491 4.0644781,4.0624891 0 0 1 0.01893,-0.244384 L 19.384288,40.14211 a 13.00633,12.999965 0 0 1 -0.0667,-0.342771 c 0.0017,0.08976 0.01697,0.192541 0.04763,0.317381 1.397248,5.674033 6.520426,9.883274 12.628459,9.883274 7.183201,0 13.006331,-5.820282 13.006331,-12.999967 0,-7.179681 -5.82313,-12.999963 -13.006327,-12.999963 z m 4.064478,7.312481 a 3.2515826,3.2499913 0 0 0 -3.251582,3.249993 3.2515826,3.2499913 0 0 0 3.251582,3.249991 3.2515826,3.2499913 0 0 0 3.251586,-3.249991 3.2515826,3.2499913 0 0 0 -3.251586,-3.249993 z m 0,0.812496 a 2.4386869,2.4374935 0 0 1 2.438685,2.437498 2.4386869,2.4374935 0 0 1 -2.438685,2.437492 2.4386869,2.4374935 0 0 1 -2.438687,-2.437492 2.4386869,2.4374935 0 0 1 2.438687,-2.437498 z m -8.128957,8.12498 a 2.4386873,2.4374939 0 0 0 -0.876401,0.165031 l 1.616266,0.825194 a 1.6260435,1.6252477 0 1 1 -1.479725,2.894525 l -1.606738,-0.82202 a 2.4386873,2.4374939 0 0 0 2.346598,1.812251 2.4386873,2.4374939 0 0 0 2.438689,-2.437495 2.4386873,2.4374939 0 0 0 -2.438689,-2.437492 z"
     class="ColorScheme-Text"
     />
</svg>
