<svg xmlns="http://www.w3.org/2000/svg" viewBox="0 0 64 64">
  <defs id="defs3051">
    <style type="text/css" id="current-color-scheme">
      .ColorScheme-Text {
        color:#232629;
      }
      .ColorScheme-Highlight {
        color:#3daee9;
      }
      </style>
  </defs>
  <path
     style="fill:currentColor"
     d="M 4 6 L 4 11 L 4 20 L 3 20 L 3 21 L 3 21 C 3 21 3 21 3 21 L 3 57 L 3 58 L 4 58 L 60 58 L 61 58 L 61 57 L 61 21 L 61 21 L 61 16 L 60 16 L 60 11 C 60 11 60 11 60 11 L 60 11 L 60 10 L 32 10 L 28 6 L 4 6 z "
     class="ColorScheme-Highlight"
     />
  <path
     style="fill-opacity:0.33"
     d="M 4 6 L 4 11 L 4 20 L 22 20 L 26 16 L 60 16 L 60 11 C 60 11 60 11 60 11 L 60 11 L 60 10 L 32 10 L 28 6 L 4 6 z "
     />
  <path
     style="fill:#ffffff;fill-opacity:0.2"
     d="M 28 6 L 31 11 L 33 11 L 60 11 L 60 10 L 33 10 L 32 10 L 28 6 z M 26 16 L 22 20 L 3 20 L 3 21 L 23 21 L 26 16 z "
     />
  <path
     style="fill-opacity:0.2;fill-rule:evenodd"
     d="M 26 16 L 20 19 L 4 19 L 4 20 L 22 20 L 26 16 z M 3 57 L 3 58 L 4 58 L 60 58 L 61 58 L 61 57 L 60 57 L 4 57 L 3 57 z "
     class="ColorScheme-Text"
     />
  <path
     style="fill:currentColor;fill-opacity:0.6;stroke:none"
     d="m 19,36.412109 c -4.27e-4,0.0097 0.01171,0.03514 0.01563,0.05078 0.0016,-0.05144 0.0036,-0.102877 0.0059,-0.154297 z m 0.04883,-0.08984 C 19.02665,36.547713 19.010368,36.773702 19,37 c 0.0092,1.066543 0.149536,2.127905 0.417969,3.160156 l 4.464843,2.283203 c -0.0083,0.08118 -0.01417,0.162603 -0.01758,0.244141 -6e-6,2.243646 1.81971,4.062487 4.064454,4.0625 2.244744,-1.4e-5 4.064459,-1.818855 4.064453,-4.0625 -6.9e-5,-0.192135 -0.01378,-0.384023 -0.04102,-0.574219 l 3.298828,-1.919922 c 0.267196,0.03798 0.536757,0.0569 0.806641,0.05664 3.142336,-4.51e-4 5.689461,-2.546702 5.689453,-5.6875 8e-6,-3.140798 -2.547117,-5.687049 -5.689453,-5.6875 -3.143099,-6.28e-4 -5.691415,2.545939 -5.691406,5.6875 0.0027,0.04756 0.0059,0.0951 0.0098,0.142578 l -2.351562,3.923828 c -0.03188,-0.0017 -0.06379,-0.003 -0.0957,-0.0039 -0.93707,0.0028 -1.844385,0.329167 -2.56836,0.923828 z m 0.369141,3.83789 -0.0332,-0.01758 z M 36.058594,31.3125 c 1.795948,-2.04e-4 3.251958,1.454931 3.251953,3.25 5e-6,1.795069 -1.456005,3.250204 -3.251953,3.25 -1.795948,2.04e-4 -3.251958,-1.454931 -3.251953,-3.25 -5e-6,-1.795069 1.456005,-3.250204 3.251953,-3.25 z m 0,0.8125 c -1.347151,-4.23e-4 -2.439457,1.091008 -2.439453,2.4375 -4e-6,1.346492 1.092302,2.437923 2.439453,2.4375 1.346389,-6.55e-4 2.437504,-1.09177 2.4375,-2.4375 4e-6,-1.34573 -1.091111,-2.436845 -2.4375,-2.4375 z m -8.128906,8.125 c 1.346388,6.55e-4 2.437504,1.09177 2.4375,2.4375 4e-6,1.34573 -1.091112,2.436845 -2.4375,2.4375 -1.10249,-0.0043 -2.064975,-0.747379 -2.347657,-1.8125 l 1.607422,0.822266 c 1.930632,0.986496 3.411101,-1.908036 1.480469,-2.894532 L 27.052734,40.414062 C 27.332471,40.30594 27.629763,40.250322 27.929688,40.25 Z"
     class="ColorScheme-Text"
     />
</svg>
