<svg xmlns="http://www.w3.org/2000/svg" viewBox="0 0 96 96">
  <defs id="defs3051">
    <style type="text/css" id="current-color-scheme">
      .ColorScheme-Text {
        color:#232629;
      }
      .ColorScheme-Highlight {
        color:#3daee9;
      }
      </style>
  </defs>
  <path
     style="fill:currentColor"
     d="M 6 9 L 6 30 L 5 30 L 5 87 L 91 87 L 91 24 L 90 24 L 90 15 L 48 15 L 42 9 L 6 9 z "
     class="ColorScheme-Highlight"
     />
  <path
     style="fill-opacity:0.33"
     d="M 6 9 L 6 30 L 33 30 L 39 24 L 90 24 L 90 15 L 48 15 L 42 9 L 6 9 z "
     />
  <path
     style="fill:#ffffff;fill-opacity:0.2"
     d="M 42 9 L 47 16 L 90 16 L 90 15 L 48 15 L 42 9 z M 39 24 L 33 30 L 5 30 L 5 31 L 34 31 L 39 24 z "
     />
  <path
     style="fill-opacity:0.2;fill-rule:evenodd"
     d="M 39 24 L 32 29 L 6 29 L 6 30 L 33 30 L 39 24 z M 5 86 L 5 87 L 91 87 L 91 86 L 5 86 z "
     class="ColorScheme-Text"
     />
  <path
     style="fill:currentColor;fill-opacity:0.6;stroke:none"
     d="m 28.5,54.580078 c -6.41e-4,0.01464 0.01758,0.05273 0.02344,0.07617 0.0028,-0.07814 0.006,-0.15627 0.0098,-0.234375 z m 0.07227,-0.138672 c -0.03299,0.339154 -0.05709,0.679115 -0.07227,1.019532 0.01326,1.599079 0.223169,3.190456 0.625,4.738281 L 35.826172,63.625 c -0.01346,0.122073 -0.02324,0.244525 -0.0293,0.367188 -7e-6,3.365851 2.730161,6.09427 6.097656,6.09375 3.366732,-5.58e-4 6.09571,-2.728661 6.095703,-6.09375 -3.35e-4,-0.288878 -0.02122,-0.577366 -0.0625,-0.863282 L 52.876953,60.25 c 0.401094,0.05734 0.805763,0.08606 1.210938,0.08594 4.713883,-1.34e-4 8.535166,-3.819668 8.535156,-8.53125 1e-5,-4.711582 -3.821273,-8.531116 -8.535156,-8.53125 -4.714646,-9.45e-4 -8.53712,3.818906 -8.53711,8.53125 0.0043,0.07103 0.0095,0.141995 0.01563,0.21289 l -3.529297,5.884766 c -0.0475,-0.0025 -0.09503,-0.0045 -0.142578,-0.0059 -1.40606,0.0043 -2.767426,0.494164 -3.853515,1.386719 z m 0.503906,5.732422 c -0.03552,-0.17142 -0.06872,-0.343311 -0.09961,-0.515625 0.0025,0.134646 0.02434,0.289303 0.07031,0.476563 z M 54.087891,46.927734 c 2.693538,2.3e-4 4.876959,2.182776 4.876953,4.875 6e-6,2.692224 -2.183415,4.87477 -4.876953,4.875 -2.694301,8.48e-4 -4.878913,-2.182014 -4.878907,-4.875 -6e-6,-2.692986 2.184606,-4.875848 4.878907,-4.875 z m 0,1.21875 c -2.020344,-9.7e-5 -3.658207,1.636892 -3.658203,3.65625 -4e-6,2.019358 1.637859,3.656347 3.658203,3.65625 2.020344,9.7e-5 3.658207,-1.636892 3.658203,-3.65625 4e-6,-2.019358 -1.637859,-3.656347 -3.658203,-3.65625 z m -12.19336,12.1875 c 2.020344,-9.6e-5 3.658207,1.636892 3.658203,3.65625 4e-6,2.019358 -1.637859,3.656346 -3.658203,3.65625 -1.653176,-0.0062 -3.09672,-1.119888 -3.521484,-2.716796 l 2.410156,1.232421 c 2.895944,1.479745 5.116647,-2.862052 2.220703,-4.341797 l -2.423828,-1.238281 c 0.419173,-0.162733 0.864773,-0.246821 1.314453,-0.248047 z"
     class="ColorScheme-Text"
     />
</svg>
