<svg xmlns="http://www.w3.org/2000/svg" viewBox="0 0 48 48">
  <defs id="defs3051">
    <style type="text/css" id="current-color-scheme">
      .ColorScheme-Text {
        color:#31363b;
      }
      .ColorScheme-Highlight {
        color:#3daee9;
      }
      </style>
  </defs>
  <path
     style="fill:currentColor;fill-opacity:1;stroke:none"
     d="M 5,6 V 16 H 4 V 42 H 44 V 13 H 43 V 9 H 24 L 21,6 Z"
     class="ColorScheme-Highlight"
     />
  <path
     style="fill-opacity:0.33;fill-rule:evenodd"
     d="m 5,6 v 10 h 12 l 3,-3 H 43 V 9 H 24 L 21,6 Z"
     />
  <path
     style="fill:#ffffff;fill-opacity:0.2;fill-rule:evenodd"
     d="M 21 6 L 23 10 L 43 10 L 43 9 L 24 9 L 21 6 z M 20 13 L 17 16 L 4 16 L 4 17 L 18 17 L 20 13 z "
     />
  <path
     style="fill-opacity:0.2;fill-rule:evenodd"
     d="M 20 13 L 16 15 L 5 15 L 5 16 L 17 16 L 20 13 z M 4 41 L 4 42 C 4 42 44 42 44 42 L 44 41 L 4 41 z "
     class="ColorScheme-Text"
     />
  <path
     style="fill:currentColor;fill-opacity:0.6;stroke:none"
     d="m 23.995601,18.5 c -4.836723,0 -8.782992,3.81161 -8.995675,8.593491 -2.96e-4,0.0068 0.0084,0.02433 0.01108,0.03514 a 9.0044706,8.9999841 0 0 1 0.0045,-0.107663 l 4.387912,2.243403 a 2.8138971,2.8124951 0 0 1 1.778447,-0.639406 2.8138971,2.8124951 0 0 1 0.06595,0.0023 l 1.628982,-2.715813 a 3.9394559,3.9374931 0 0 1 -0.0068,-0.09892 3.9394559,3.9374931 0 0 1 3.939455,-3.937493 3.9394559,3.9374931 0 0 1 3.939457,3.937493 3.9394559,3.9374931 0 0 1 -3.939457,3.937492 3.9394559,3.9374931 0 0 1 -0.558382,-0.03955 l -2.284094,1.329343 a 2.8138971,2.8124951 0 0 1 0.02858,0.397705 2.8138971,2.8124951 0 0 1 -2.813897,2.812495 2.8138971,2.8124951 0 0 1 -2.813898,-2.812496 2.8138971,2.8124951 0 0 1 0.01311,-0.16919 l -3.114922,-1.593029 a 9.0044706,8.9999841 0 0 1 -0.04618,-0.237304 c 0.0011,0.06214 0.01162,0.133298 0.03297,0.219726 0.967333,3.928181 4.514184,6.842274 8.742864,6.842274 4.973033,0 9.004471,-4.029431 9.004471,-8.999986 0,-4.970554 -4.031438,-8.999983 -9.004469,-8.999983 z m 2.813897,5.062491 a 2.2511177,2.2499961 0 0 0 -2.251117,2.249997 2.2511177,2.2499961 0 0 0 2.251117,2.249995 2.2511177,2.2499961 0 0 0 2.25112,-2.249995 2.2511177,2.2499961 0 0 0 -2.25112,-2.249997 z m 0,0.562498 a 1.6883383,1.6874971 0 0 1 1.688338,1.687499 1.6883383,1.6874971 0 0 1 -1.688338,1.687497 1.6883383,1.6874971 0 0 1 -1.688338,-1.687497 1.6883383,1.6874971 0 0 1 1.688338,-1.687499 z m -5.627795,5.624991 a 1.6883385,1.6874973 0 0 0 -0.606745,0.114254 l 1.118964,0.571287 a 1.1257334,1.1251725 0 1 1 -1.024434,2.003904 l -1.112369,-0.569091 a 1.6883385,1.6874973 0 0 0 1.624584,1.254636 1.6883385,1.6874973 0 0 0 1.68834,-1.687497 1.6883385,1.6874973 0 0 0 -1.68834,-1.687497 z"
     class="ColorScheme-Text"
     />
</svg>
